<svg width="309" height="87" viewBox="0 0 309 87" fill="none" xmlns="http://www.w3.org/2000/svg">
<path d="M2.86154 25.6206V17.6747H44.6094V25.6206H28.4366V70H19.0344V25.6206H2.86154Z" fill="#373333"/>
<circle cx="79.1761" cy="43.5" r="26.8758" fill="url(#paint0_linear_41_1737)"/>
<path d="M150.567 34.384C150.141 33.0044 149.553 31.7695 148.804 30.6794C148.072 29.5722 147.186 28.6269 146.147 27.8434C145.125 27.0598 143.95 26.4722 142.621 26.0805C141.292 25.6717 139.845 25.4673 138.278 25.4673C135.467 25.4673 132.963 26.1741 130.766 27.5879C128.569 29.0016 126.84 31.0796 125.58 33.8219C124.336 36.5472 123.714 39.8687 123.714 43.7862C123.714 47.7379 124.336 51.0849 125.58 53.8272C126.823 56.5695 128.552 58.656 130.766 60.0868C132.98 61.5005 135.552 62.2074 138.482 62.2074C141.139 62.2074 143.439 61.6964 145.38 60.6744C147.339 59.6525 148.847 58.2047 149.903 56.331C150.959 54.4404 151.487 52.2261 151.487 49.6882L153.633 50.0203H139.427V42.611H160.659V48.8961C160.659 53.3758 159.705 57.2508 157.797 60.5211C155.89 63.7915 153.267 66.3124 149.928 68.0838C146.59 69.8382 142.757 70.7154 138.431 70.7154C133.611 70.7154 129.378 69.6338 125.733 67.4706C122.105 65.2904 119.269 62.1989 117.225 58.1961C115.198 54.1764 114.184 49.4071 114.184 43.8884C114.184 39.6643 114.781 35.8915 115.973 32.57C117.182 29.2486 118.869 26.4296 121.032 24.1131C123.195 21.7796 125.733 20.0082 128.645 18.7989C131.558 17.5725 134.726 16.9593 138.15 16.9593C141.045 16.9593 143.745 17.3851 146.249 18.2368C148.753 19.0714 150.976 20.2637 152.917 21.8137C154.876 23.3637 156.486 25.2033 157.746 27.3324C159.007 29.4615 159.833 31.8121 160.225 34.384H150.567ZM206.318 34.384C205.892 33.0044 205.304 31.7695 204.555 30.6794C203.822 29.5722 202.937 28.6269 201.898 27.8434C200.876 27.0598 199.7 26.4722 198.372 26.0805C197.043 25.6717 195.595 25.4673 194.028 25.4673C191.218 25.4673 188.714 26.1741 186.517 27.5879C184.32 29.0016 182.591 31.0796 181.33 33.8219C180.087 36.5472 179.465 39.8687 179.465 43.7862C179.465 47.7379 180.087 51.0849 181.33 53.8272C182.574 56.5695 184.303 58.656 186.517 60.0868C188.731 61.5005 191.303 62.2074 194.233 62.2074C196.89 62.2074 199.189 61.6964 201.131 60.6744C203.09 59.6525 204.597 58.2047 205.653 56.331C206.709 54.4404 207.237 52.2261 207.237 49.6882L209.384 50.0203H195.178V42.611H216.41V48.8961C216.41 53.3758 215.456 57.2508 213.548 60.5211C211.64 63.7915 209.017 66.3124 205.679 68.0838C202.34 69.8382 198.508 70.7154 194.182 70.7154C189.361 70.7154 185.129 69.6338 181.484 67.4706C177.856 65.2904 175.02 62.1989 172.976 58.1961C170.949 54.1764 169.935 49.4071 169.935 43.8884C169.935 39.6643 170.531 35.8915 171.724 32.57C172.933 29.2486 174.619 26.4296 176.782 24.1131C178.946 21.7796 181.484 20.0082 184.396 18.7989C187.309 17.5725 190.477 16.9593 193.901 16.9593C196.796 16.9593 199.496 17.3851 202 18.2368C204.504 19.0714 206.726 20.2637 208.668 21.8137C210.627 23.3637 212.237 25.2033 213.497 27.3324C214.758 29.4615 215.584 31.8121 215.975 34.384H206.318ZM227.015 70V17.6747H236.493V62.0541H259.539V70H227.015ZM269.205 70V17.6747H303.237V25.6206H278.684V39.8261H301.474V47.772H278.684V62.0541H303.441V70H269.205Z" fill="#373333"/>
<defs>
<linearGradient id="paint0_linear_41_1737" x1="106.052" y1="37.5276" x2="52.5125" y2="50.358" gradientUnits="userSpaceOnUse">
<stop stop-color="#082049"/>
<stop offset="1" stop-color="#082049" stop-opacity="0"/>
<stop offset="1" stop-color="#082049" stop-opacity="0.79"/>
</linearGradient>
</defs>
</svg>
